<svg xmlns="http://www.w3.org/2000/svg" xmlns:xlink="http://www.w3.org/1999/xlink" width="1500" zoomAndPan="magnify" viewBox="0 0 1125 187.499995" height="250" preserveAspectRatio="xMidYMid meet" version="1.0"><defs><clipPath id="02e4069d7d"><path d="M 328.085938 18.699219 L 474.65625 18.699219 L 474.65625 165.269531 L 328.085938 165.269531 Z M 328.085938 18.699219 " clip-rule="nonzero"/></clipPath><clipPath id="bccc0b089d"><path d="M 401.371094 18.699219 C 360.898438 18.699219 328.085938 51.511719 328.085938 91.984375 C 328.085938 132.457031 360.898438 165.269531 401.371094 165.269531 C 441.84375 165.269531 474.65625 132.457031 474.65625 91.984375 C 474.65625 51.511719 441.84375 18.699219 401.371094 18.699219 Z M 401.371094 18.699219 " clip-rule="nonzero"/></clipPath><clipPath id="5a0fda7c73"><path d="M 328.085938 18.699219 L 474.648438 18.699219 L 474.648438 165.261719 L 328.085938 165.261719 Z M 328.085938 18.699219 " clip-rule="nonzero"/></clipPath><clipPath id="24db712d82"><path d="M 401.367188 18.699219 C 360.898438 18.699219 328.085938 51.507812 328.085938 91.980469 C 328.085938 132.453125 360.898438 165.261719 401.367188 165.261719 C 441.839844 165.261719 474.648438 132.453125 474.648438 91.980469 C 474.648438 51.507812 441.839844 18.699219 401.367188 18.699219 Z M 401.367188 18.699219 " clip-rule="nonzero"/></clipPath><clipPath id="031c53e4ff"><path d="M 374.902344 56.101562 L 428 56.101562 L 428 120 L 374.902344 120 Z M 374.902344 56.101562 " clip-rule="nonzero"/></clipPath><clipPath id="d522f819db"><path d="M 390 124 L 406 124 L 406 139.128906 L 390 139.128906 Z M 390 124 " clip-rule="nonzero"/></clipPath><clipPath id="600eefbd38"><path d="M 435.507812 18.699219 L 582.074219 18.699219 L 582.074219 165.269531 L 435.507812 165.269531 Z M 435.507812 18.699219 " clip-rule="nonzero"/></clipPath><clipPath id="0e71eda4a5"><path d="M 508.789062 18.699219 C 468.316406 18.699219 435.507812 51.511719 435.507812 91.984375 C 435.507812 132.457031 468.316406 165.269531 508.789062 165.269531 C 549.265625 165.269531 582.074219 132.457031 582.074219 91.984375 C 582.074219 51.511719 549.265625 18.699219 508.789062 18.699219 Z M 508.789062 18.699219 " clip-rule="nonzero"/></clipPath><clipPath id="910a6ca118"><path d="M 435.507812 18.699219 L 582.070312 18.699219 L 582.070312 165.261719 L 435.507812 165.261719 Z M 435.507812 18.699219 " clip-rule="nonzero"/></clipPath><clipPath id="d88baeaf9f"><path d="M 508.789062 18.699219 C 468.316406 18.699219 435.507812 51.507812 435.507812 91.980469 C 435.507812 132.453125 468.316406 165.261719 508.789062 165.261719 C 549.261719 165.261719 582.070312 132.453125 582.070312 91.980469 C 582.070312 51.507812 549.261719 18.699219 508.789062 18.699219 Z M 508.789062 18.699219 " clip-rule="nonzero"/></clipPath><clipPath id="a485c07257"><path d="M 482.324219 56.101562 L 535.429688 56.101562 L 535.429688 120 L 482.324219 120 Z M 482.324219 56.101562 " clip-rule="nonzero"/></clipPath><clipPath id="f88f85e871"><path d="M 497 124 L 513 124 L 513 139.128906 L 497 139.128906 Z M 497 124 " clip-rule="nonzero"/></clipPath><clipPath id="e9078d0ad3"><path d="M 542.925781 18.699219 L 689.492188 18.699219 L 689.492188 165.269531 L 542.925781 165.269531 Z M 542.925781 18.699219 " clip-rule="nonzero"/></clipPath><clipPath id="cb5690b251"><path d="M 616.210938 18.699219 C 575.734375 18.699219 542.925781 51.511719 542.925781 91.984375 C 542.925781 132.457031 575.734375 165.269531 616.210938 165.269531 C 656.683594 165.269531 689.492188 132.457031 689.492188 91.984375 C 689.492188 51.511719 656.683594 18.699219 616.210938 18.699219 Z M 616.210938 18.699219 " clip-rule="nonzero"/></clipPath><clipPath id="acf7390697"><path d="M 542.925781 18.699219 L 689.488281 18.699219 L 689.488281 165.261719 L 542.925781 165.261719 Z M 542.925781 18.699219 " clip-rule="nonzero"/></clipPath><clipPath id="5521113e0d"><path d="M 616.207031 18.699219 C 575.734375 18.699219 542.925781 51.507812 542.925781 91.980469 C 542.925781 132.453125 575.734375 165.261719 616.207031 165.261719 C 656.679688 165.261719 689.488281 132.453125 689.488281 91.980469 C 689.488281 51.507812 656.679688 18.699219 616.207031 18.699219 Z M 616.207031 18.699219 " clip-rule="nonzero"/></clipPath><clipPath id="2a11fedccc"><path d="M 589.742188 56.101562 L 642.851562 56.101562 L 642.851562 120 L 589.742188 120 Z M 589.742188 56.101562 " clip-rule="nonzero"/></clipPath><clipPath id="2775b65f9d"><path d="M 604 124 L 620 124 L 620 139.128906 L 604 139.128906 Z M 604 124 " clip-rule="nonzero"/></clipPath><clipPath id="2bd3ba7d87"><path d="M 650.34375 18.699219 L 796.914062 18.699219 L 796.914062 165.269531 L 650.34375 165.269531 Z M 650.34375 18.699219 " clip-rule="nonzero"/></clipPath><clipPath id="72af29e228"><path d="M 723.628906 18.699219 C 683.15625 18.699219 650.34375 51.511719 650.34375 91.984375 C 650.34375 132.457031 683.15625 165.269531 723.628906 165.269531 C 764.101562 165.269531 796.914062 132.457031 796.914062 91.984375 C 796.914062 51.511719 764.101562 18.699219 723.628906 18.699219 Z M 723.628906 18.699219 " clip-rule="nonzero"/></clipPath><clipPath id="d8b4a46fb6"><path d="M 650.34375 18.699219 L 796.90625 18.699219 L 796.90625 165.261719 L 650.34375 165.261719 Z M 650.34375 18.699219 " clip-rule="nonzero"/></clipPath><clipPath id="5585d0442b"><path d="M 723.625 18.699219 C 683.152344 18.699219 650.34375 51.507812 650.34375 91.980469 C 650.34375 132.453125 683.152344 165.261719 723.625 165.261719 C 764.097656 165.261719 796.90625 132.453125 796.90625 91.980469 C 796.90625 51.507812 764.097656 18.699219 723.625 18.699219 Z M 723.625 18.699219 " clip-rule="nonzero"/></clipPath><clipPath id="5f73c25825"><path d="M 697.160156 56.101562 L 750.269531 56.101562 L 750.269531 120 L 697.160156 120 Z M 697.160156 56.101562 " clip-rule="nonzero"/></clipPath><clipPath id="4619dad2ac"><path d="M 712 124 L 728 124 L 728 139.128906 L 712 139.128906 Z M 712 124 " clip-rule="nonzero"/></clipPath></defs><g clip-path="url(#02e4069d7d)"><g clip-path="url(#bccc0b089d)"><path fill="#171717" d="M 328.085938 18.699219 L 474.65625 18.699219 L 474.65625 165.269531 L 328.085938 165.269531 Z M 328.085938 18.699219 " fill-opacity="1" fill-rule="nonzero"/></g></g><g clip-path="url(#5a0fda7c73)"><g clip-path="url(#24db712d82)"><path stroke-linecap="butt" transform="matrix(0.748005, 0, 0, 0.748005, 328.087456, 18.700132)" fill="none" stroke-linejoin="miter" d="M 97.966866 -0.00122047 C 43.86464 -0.00122047 -0.00202942 43.860227 -0.00202942 97.967675 C -0.00202942 152.075123 43.86464 195.936571 97.966866 195.936571 C 152.074315 195.936571 195.935762 152.075123 195.935762 97.967675 C 195.935762 43.860227 152.074315 -0.00122047 97.966866 -0.00122047 Z M 97.966866 -0.00122047 " stroke="#ffffff" stroke-width="16" stroke-opacity="1" stroke-miterlimit="4"/></g></g><g clip-path="url(#031c53e4ff)"><path fill="#ffffff" d="M 397.589844 119.117188 C 393.414062 119.117188 390.027344 115.730469 390.027344 111.554688 L 390.027344 101.472656 C 390.027344 97.292969 393.414062 93.910156 397.589844 93.910156 C 399.109375 93.894531 412.714844 91.390625 412.714844 81.304688 C 412.714844 76.265625 407.671875 71.222656 400.109375 71.222656 C 393.957031 71.222656 390.027344 76.265625 390.027344 78.785156 C 390.027344 82.960938 386.640625 86.347656 382.464844 86.347656 C 378.289062 86.347656 374.902344 82.960938 374.902344 78.785156 C 374.902344 66.492188 386.449219 56.101562 400.109375 56.101562 C 420.273438 56.101562 427.835938 71.179688 427.835938 83.828125 C 427.835938 94.273438 422.097656 102.261719 411.671875 106.3125 C 409.402344 107.195312 407.160156 107.789062 405.152344 108.195312 L 405.152344 111.554688 C 405.152344 115.730469 401.765625 119.117188 397.589844 119.117188 Z M 397.589844 119.117188 " fill-opacity="1" fill-rule="nonzero"/></g><g clip-path="url(#d522f819db)"><path fill="#ffffff" d="M 405.152344 131.71875 C 405.152344 132.214844 405.101562 132.707031 405.007812 133.195312 C 404.910156 133.679688 404.765625 134.152344 404.574219 134.613281 C 404.386719 135.070312 404.152344 135.507812 403.878906 135.921875 C 403.601562 136.332031 403.289062 136.714844 402.9375 137.066406 C 402.585938 137.417969 402.203125 137.730469 401.789062 138.007812 C 401.378906 138.28125 400.941406 138.515625 400.484375 138.707031 C 400.023438 138.894531 399.550781 139.039062 399.066406 139.136719 C 398.578125 139.234375 398.085938 139.28125 397.589844 139.28125 C 397.09375 139.28125 396.601562 139.234375 396.113281 139.136719 C 395.628906 139.039062 395.15625 138.894531 394.695312 138.707031 C 394.238281 138.515625 393.800781 138.28125 393.386719 138.007812 C 392.976562 137.730469 392.59375 137.417969 392.242188 137.066406 C 391.890625 136.714844 391.578125 136.332031 391.300781 135.921875 C 391.027344 135.507812 390.792969 135.070312 390.601562 134.613281 C 390.414062 134.152344 390.269531 133.679688 390.171875 133.195312 C 390.074219 132.707031 390.027344 132.214844 390.027344 131.71875 C 390.027344 131.222656 390.074219 130.730469 390.171875 130.242188 C 390.269531 129.757812 390.414062 129.285156 390.601562 128.824219 C 390.792969 128.367188 391.027344 127.929688 391.300781 127.519531 C 391.578125 127.105469 391.890625 126.722656 392.242188 126.371094 C 392.59375 126.019531 392.976562 125.707031 393.386719 125.429688 C 393.800781 125.15625 394.238281 124.921875 394.695312 124.734375 C 395.15625 124.542969 395.628906 124.398438 396.113281 124.300781 C 396.601562 124.207031 397.09375 124.15625 397.589844 124.15625 C 398.085938 124.15625 398.578125 124.207031 399.066406 124.300781 C 399.550781 124.398438 400.023438 124.542969 400.484375 124.734375 C 400.941406 124.921875 401.378906 125.15625 401.789062 125.429688 C 402.203125 125.707031 402.585938 126.019531 402.9375 126.371094 C 403.289062 126.722656 403.601562 127.105469 403.878906 127.519531 C 404.152344 127.929688 404.386719 128.367188 404.574219 128.824219 C 404.765625 129.285156 404.910156 129.757812 405.007812 130.242188 C 405.101562 130.730469 405.152344 131.222656 405.152344 131.71875 Z M 405.152344 131.71875 " fill-opacity="1" fill-rule="nonzero"/></g><g clip-path="url(#600eefbd38)"><g clip-path="url(#0e71eda4a5)"><path fill="#171717" d="M 435.507812 18.699219 L 582.074219 18.699219 L 582.074219 165.269531 L 435.507812 165.269531 Z M 435.507812 18.699219 " fill-opacity="1" fill-rule="nonzero"/></g></g><g clip-path="url(#910a6ca118)"><g clip-path="url(#d88baeaf9f)"><path stroke-linecap="butt" transform="matrix(0.748005, 0, 0, 0.748005, 435.506587, 18.700132)" fill="none" stroke-linejoin="miter" d="M 97.970535 -0.00122047 C 43.863086 -0.00122047 0.00163893 43.860227 0.00163893 97.967675 C 0.00163893 152.075123 43.863086 195.936571 97.970535 195.936571 C 152.077983 195.936571 195.93943 152.075123 195.93943 97.967675 C 195.93943 43.860227 152.077983 -0.00122047 97.970535 -0.00122047 Z M 97.970535 -0.00122047 " stroke="#ffffff" stroke-width="16" stroke-opacity="1" stroke-miterlimit="4"/></g></g><g clip-path="url(#a485c07257)"><path fill="#ffffff" d="M 505.007812 119.117188 C 500.832031 119.117188 497.445312 115.730469 497.445312 111.554688 L 497.445312 101.472656 C 497.445312 97.292969 500.832031 93.910156 505.007812 93.910156 C 506.527344 93.894531 520.132812 91.390625 520.132812 81.304688 C 520.132812 76.265625 515.089844 71.222656 507.53125 71.222656 C 501.375 71.222656 497.445312 76.265625 497.445312 78.785156 C 497.445312 82.960938 494.0625 86.347656 489.886719 86.347656 C 485.707031 86.347656 482.324219 82.960938 482.324219 78.785156 C 482.324219 66.492188 493.867188 56.101562 507.53125 56.101562 C 527.695312 56.101562 535.257812 71.179688 535.257812 83.828125 C 535.257812 94.273438 529.515625 102.261719 519.089844 106.3125 C 516.824219 107.195312 514.578125 107.789062 512.570312 108.195312 L 512.570312 111.554688 C 512.570312 115.730469 509.183594 119.117188 505.007812 119.117188 Z M 505.007812 119.117188 " fill-opacity="1" fill-rule="nonzero"/></g><g clip-path="url(#f88f85e871)"><path fill="#ffffff" d="M 512.570312 131.71875 C 512.570312 132.214844 512.523438 132.707031 512.425781 133.195312 C 512.328125 133.679688 512.183594 134.152344 511.996094 134.613281 C 511.804688 135.070312 511.570312 135.507812 511.296875 135.921875 C 511.019531 136.332031 510.707031 136.714844 510.355469 137.066406 C 510.003906 137.417969 509.621094 137.730469 509.210938 138.007812 C 508.796875 138.28125 508.359375 138.515625 507.902344 138.707031 C 507.445312 138.894531 506.972656 139.039062 506.484375 139.136719 C 505.996094 139.234375 505.503906 139.28125 505.007812 139.28125 C 504.511719 139.28125 504.019531 139.234375 503.535156 139.136719 C 503.046875 139.039062 502.574219 138.894531 502.113281 138.707031 C 501.65625 138.515625 501.21875 138.28125 500.808594 138.007812 C 500.394531 137.730469 500.011719 137.417969 499.660156 137.066406 C 499.3125 136.714844 498.996094 136.332031 498.722656 135.921875 C 498.445312 135.507812 498.210938 135.070312 498.023438 134.613281 C 497.832031 134.152344 497.6875 133.679688 497.59375 133.195312 C 497.496094 132.707031 497.445312 132.214844 497.445312 131.71875 C 497.445312 131.222656 497.496094 130.730469 497.59375 130.242188 C 497.6875 129.757812 497.832031 129.285156 498.023438 128.824219 C 498.210938 128.367188 498.445312 127.929688 498.722656 127.519531 C 498.996094 127.105469 499.3125 126.722656 499.660156 126.371094 C 500.011719 126.019531 500.394531 125.707031 500.808594 125.429688 C 501.21875 125.15625 501.65625 124.921875 502.113281 124.734375 C 502.574219 124.542969 503.046875 124.398438 503.535156 124.300781 C 504.019531 124.207031 504.511719 124.15625 505.007812 124.15625 C 505.503906 124.15625 505.996094 124.207031 506.484375 124.300781 C 506.972656 124.398438 507.445312 124.542969 507.902344 124.734375 C 508.359375 124.921875 508.796875 125.15625 509.210938 125.429688 C 509.621094 125.707031 510.003906 126.019531 510.355469 126.371094 C 510.707031 126.722656 511.019531 127.105469 511.296875 127.519531 C 511.570312 127.929688 511.804688 128.367188 511.996094 128.824219 C 512.183594 129.285156 512.328125 129.757812 512.425781 130.242188 C 512.523438 130.730469 512.570312 131.222656 512.570312 131.71875 Z M 512.570312 131.71875 " fill-opacity="1" fill-rule="nonzero"/></g><g clip-path="url(#e9078d0ad3)"><g clip-path="url(#cb5690b251)"><path fill="#171717" d="M 542.925781 18.699219 L 689.492188 18.699219 L 689.492188 165.269531 L 542.925781 165.269531 Z M 542.925781 18.699219 " fill-opacity="1" fill-rule="nonzero"/></g></g><g clip-path="url(#acf7390697)"><g clip-path="url(#5521113e0d)"><path stroke-linecap="butt" transform="matrix(0.748005, 0, 0, 0.748005, 542.92572, 18.700132)" fill="none" stroke-linejoin="miter" d="M 97.968978 -0.00122047 C 43.861529 -0.00122047 0.0000818644 43.860227 0.0000818644 97.967675 C 0.0000818644 152.075123 43.861529 195.936571 97.968978 195.936571 C 152.076426 195.936571 195.937873 152.075123 195.937873 97.967675 C 195.937873 43.860227 152.076426 -0.00122047 97.968978 -0.00122047 Z M 97.968978 -0.00122047 " stroke="#ffffff" stroke-width="16" stroke-opacity="1" stroke-miterlimit="4"/></g></g><g clip-path="url(#2a11fedccc)"><path fill="#ffffff" d="M 612.429688 119.117188 C 608.25 119.117188 604.867188 115.730469 604.867188 111.554688 L 604.867188 101.472656 C 604.867188 97.292969 608.25 93.910156 612.429688 93.910156 C 613.949219 93.894531 627.550781 91.390625 627.550781 81.304688 C 627.550781 76.265625 622.511719 71.222656 614.949219 71.222656 C 608.796875 71.222656 604.867188 76.265625 604.867188 78.785156 C 604.867188 82.960938 601.480469 86.347656 597.304688 86.347656 C 593.128906 86.347656 589.742188 82.960938 589.742188 78.785156 C 589.742188 66.492188 601.285156 56.101562 614.949219 56.101562 C 635.113281 56.101562 642.675781 71.179688 642.675781 83.828125 C 642.675781 94.273438 636.9375 102.261719 626.511719 106.3125 C 624.242188 107.195312 622 107.789062 619.988281 108.195312 L 619.988281 111.554688 C 619.988281 115.730469 616.605469 119.117188 612.429688 119.117188 Z M 612.429688 119.117188 " fill-opacity="1" fill-rule="nonzero"/></g><g clip-path="url(#2775b65f9d)"><path fill="#ffffff" d="M 619.988281 131.71875 C 619.988281 132.214844 619.941406 132.707031 619.84375 133.195312 C 619.746094 133.679688 619.605469 134.152344 619.414062 134.613281 C 619.222656 135.070312 618.992188 135.507812 618.714844 135.921875 C 618.441406 136.332031 618.125 136.714844 617.773438 137.066406 C 617.421875 137.417969 617.042969 137.730469 616.628906 138.007812 C 616.214844 138.28125 615.78125 138.515625 615.320312 138.707031 C 614.863281 138.894531 614.390625 139.039062 613.902344 139.136719 C 613.417969 139.234375 612.925781 139.28125 612.429688 139.28125 C 611.929688 139.28125 611.441406 139.234375 610.953125 139.136719 C 610.464844 139.039062 609.992188 138.894531 609.535156 138.707031 C 609.074219 138.515625 608.640625 138.28125 608.226562 138.007812 C 607.8125 137.730469 607.433594 137.417969 607.082031 137.066406 C 606.730469 136.714844 606.417969 136.332031 606.140625 135.921875 C 605.863281 135.507812 605.632812 135.070312 605.441406 134.613281 C 605.25 134.152344 605.109375 133.679688 605.011719 133.195312 C 604.914062 132.707031 604.867188 132.214844 604.867188 131.71875 C 604.867188 131.222656 604.914062 130.730469 605.011719 130.242188 C 605.109375 129.757812 605.25 129.285156 605.441406 128.824219 C 605.632812 128.367188 605.863281 127.929688 606.140625 127.519531 C 606.417969 127.105469 606.730469 126.722656 607.082031 126.371094 C 607.433594 126.019531 607.8125 125.707031 608.226562 125.429688 C 608.640625 125.15625 609.074219 124.921875 609.535156 124.734375 C 609.992188 124.542969 610.464844 124.398438 610.953125 124.300781 C 611.441406 124.207031 611.929688 124.15625 612.429688 124.15625 C 612.925781 124.15625 613.417969 124.207031 613.902344 124.300781 C 614.390625 124.398438 614.863281 124.542969 615.320312 124.734375 C 615.78125 124.921875 616.214844 125.15625 616.628906 125.429688 C 617.042969 125.707031 617.421875 126.019531 617.773438 126.371094 C 618.125 126.722656 618.441406 127.105469 618.714844 127.519531 C 618.992188 127.929688 619.222656 128.367188 619.414062 128.824219 C 619.605469 129.285156 619.746094 129.757812 619.84375 130.242188 C 619.941406 130.730469 619.988281 131.222656 619.988281 131.71875 Z M 619.988281 131.71875 " fill-opacity="1" fill-rule="nonzero"/></g><g clip-path="url(#2bd3ba7d87)"><g clip-path="url(#72af29e228)"><path fill="#171717" d="M 650.34375 18.699219 L 796.914062 18.699219 L 796.914062 165.269531 L 650.34375 165.269531 Z M 650.34375 18.699219 " fill-opacity="1" fill-rule="nonzero"/></g></g><g clip-path="url(#d8b4a46fb6)"><g clip-path="url(#5585d0442b)"><path stroke-linecap="butt" transform="matrix(0.748005, 0, 0, 0.748005, 650.34483, 18.700132)" fill="none" stroke-linejoin="miter" d="M 97.967453 -0.00122047 C 43.860004 -0.00122047 -0.0014432 43.860227 -0.0014432 97.967675 C -0.0014432 152.075123 43.860004 195.936571 97.967453 195.936571 C 152.074901 195.936571 195.936348 152.075123 195.936348 97.967675 C 195.936348 43.860227 152.074901 -0.00122047 97.967453 -0.00122047 Z M 97.967453 -0.00122047 " stroke="#ffffff" stroke-width="16" stroke-opacity="1" stroke-miterlimit="4"/></g></g><g clip-path="url(#5f73c25825)"><path fill="#ffffff" d="M 719.847656 119.117188 C 715.671875 119.117188 712.285156 115.730469 712.285156 111.554688 L 712.285156 101.472656 C 712.285156 97.292969 715.671875 93.910156 719.847656 93.910156 C 721.367188 93.894531 734.96875 91.390625 734.96875 81.304688 C 734.96875 76.265625 729.929688 71.222656 722.367188 71.222656 C 716.214844 71.222656 712.285156 76.265625 712.285156 78.785156 C 712.285156 82.960938 708.898438 86.347656 704.722656 86.347656 C 700.546875 86.347656 697.160156 82.960938 697.160156 78.785156 C 697.160156 66.492188 708.707031 56.101562 722.367188 56.101562 C 742.53125 56.101562 750.09375 71.179688 750.09375 83.828125 C 750.09375 94.273438 744.355469 102.261719 733.929688 106.3125 C 731.660156 107.195312 729.417969 107.789062 727.410156 108.195312 L 727.410156 111.554688 C 727.410156 115.730469 724.023438 119.117188 719.847656 119.117188 Z M 719.847656 119.117188 " fill-opacity="1" fill-rule="nonzero"/></g><g clip-path="url(#4619dad2ac)"><path fill="#ffffff" d="M 727.410156 131.71875 C 727.410156 132.214844 727.359375 132.707031 727.261719 133.195312 C 727.167969 133.679688 727.023438 134.152344 726.832031 134.613281 C 726.644531 135.070312 726.410156 135.507812 726.132812 135.921875 C 725.859375 136.332031 725.546875 136.714844 725.195312 137.066406 C 724.84375 137.417969 724.460938 137.730469 724.046875 138.007812 C 723.636719 138.28125 723.199219 138.515625 722.742188 138.707031 C 722.28125 138.894531 721.808594 139.039062 721.320312 139.136719 C 720.835938 139.234375 720.34375 139.28125 719.847656 139.28125 C 719.351562 139.28125 718.859375 139.234375 718.371094 139.136719 C 717.882812 139.039062 717.410156 138.894531 716.953125 138.707031 C 716.496094 138.515625 716.058594 138.28125 715.644531 138.007812 C 715.234375 137.730469 714.851562 137.417969 714.5 137.066406 C 714.148438 136.714844 713.835938 136.332031 713.558594 135.921875 C 713.285156 135.507812 713.050781 135.070312 712.859375 134.613281 C 712.671875 134.152344 712.527344 133.679688 712.429688 133.195312 C 712.332031 132.707031 712.285156 132.214844 712.285156 131.71875 C 712.285156 131.222656 712.332031 130.730469 712.429688 130.242188 C 712.527344 129.757812 712.671875 129.285156 712.859375 128.824219 C 713.050781 128.367188 713.285156 127.929688 713.558594 127.519531 C 713.835938 127.105469 714.148438 126.722656 714.5 126.371094 C 714.851562 126.019531 715.234375 125.707031 715.644531 125.429688 C 716.058594 125.15625 716.496094 124.921875 716.953125 124.734375 C 717.410156 124.542969 717.882812 124.398438 718.371094 124.300781 C 718.859375 124.207031 719.351562 124.15625 719.847656 124.15625 C 720.34375 124.15625 720.835938 124.207031 721.320312 124.300781 C 721.808594 124.398438 722.28125 124.542969 722.742188 124.734375 C 723.199219 124.921875 723.636719 125.15625 724.046875 125.429688 C 724.460938 125.707031 724.84375 126.019531 725.195312 126.371094 C 725.546875 126.722656 725.859375 127.105469 726.132812 127.519531 C 726.410156 127.929688 726.644531 128.367188 726.832031 128.824219 C 727.023438 129.285156 727.167969 129.757812 727.261719 130.242188 C 727.359375 130.730469 727.410156 131.222656 727.410156 131.71875 Z M 727.410156 131.71875 " fill-opacity="1" fill-rule="nonzero"/></g></svg>