<svg xmlns="http://www.w3.org/2000/svg" xmlns:xlink="http://www.w3.org/1999/xlink" width="500" zoomAndPan="magnify" viewBox="0 0 375 374.999991" height="500" preserveAspectRatio="xMidYMid meet" version="1.0"><defs><clipPath id="7c052bed31"><path d="M 74.632812 81.164062 L 300.367188 81.164062 L 300.367188 306.902344 L 74.632812 306.902344 Z M 74.632812 81.164062 " clip-rule="nonzero"/></clipPath><clipPath id="ff56dc1c34"><path d="M 187.5 81.164062 C 125.164062 81.164062 74.632812 131.699219 74.632812 194.035156 C 74.632812 256.371094 125.164062 306.902344 187.5 306.902344 C 249.835938 306.902344 300.367188 256.371094 300.367188 194.035156 C 300.367188 131.699219 249.835938 81.164062 187.5 81.164062 Z M 187.5 81.164062 " clip-rule="nonzero"/></clipPath></defs><rect x="-37.5" width="450" fill="#ffffff" y="-37.499999" height="449.999989" fill-opacity="1"/><rect x="-37.5" width="450" fill="#ccff00" y="-37.499999" height="449.999989" fill-opacity="1"/><g clip-path="url(#7c052bed31)"><g clip-path="url(#ff56dc1c34)"><path fill="#004aad" d="M 74.632812 81.164062 L 300.367188 81.164062 L 300.367188 306.902344 L 74.632812 306.902344 Z M 74.632812 81.164062 " fill-opacity="1" fill-rule="nonzero"/></g></g><path fill="#ffde59" d="M 284.859375 202.707031 C 284.710938 204.21875 284.53125 205.726562 284.316406 207.230469 C 284.101562 208.730469 283.847656 210.230469 283.5625 211.71875 C 283.277344 213.210938 282.953125 214.695312 282.597656 216.171875 C 282.242188 217.648438 281.851562 219.113281 281.425781 220.570312 C 281 222.03125 280.542969 223.476562 280.046875 224.914062 C 279.554688 226.347656 279.027344 227.773438 278.46875 229.183594 C 277.90625 230.59375 277.3125 231.992188 276.6875 233.375 C 276.0625 234.757812 275.402344 236.125 274.710938 237.480469 C 274.023438 238.832031 273.300781 240.167969 272.546875 241.484375 C 271.792969 242.804688 271.007812 244.101562 270.195312 245.386719 C 269.378906 246.667969 268.535156 247.929688 267.660156 249.167969 C 266.789062 250.410156 265.886719 251.632812 264.953125 252.832031 C 264.023438 254.03125 263.0625 255.207031 262.078125 256.363281 C 261.089844 257.515625 260.078125 258.644531 259.035156 259.753906 C 257.996094 260.859375 256.933594 261.941406 255.839844 262.996094 C 254.75 264.054688 253.636719 265.082031 252.496094 266.085938 C 251.355469 267.089844 250.195312 268.066406 249.007812 269.015625 C 247.824219 269.964844 246.617188 270.886719 245.386719 271.78125 C 244.160156 272.671875 242.910156 273.535156 241.640625 274.367188 C 240.371094 275.203125 239.085938 276.003906 237.777344 276.777344 C 236.472656 277.550781 235.148438 278.292969 233.804688 279.003906 C 232.460938 279.714844 231.105469 280.394531 229.730469 281.039062 C 228.355469 281.6875 226.96875 282.300781 225.566406 282.882812 C 224.164062 283.464844 222.75 284.011719 221.320312 284.527344 C 219.890625 285.042969 218.453125 285.523438 217 285.96875 C 215.550781 286.417969 214.089844 286.828125 212.617188 287.207031 C 211.148438 287.585938 209.667969 287.929688 208.183594 288.238281 C 206.695312 288.546875 205.203125 288.820312 203.703125 289.058594 C 202.203125 289.296875 200.699219 289.5 199.1875 289.667969 C 197.679688 289.835938 196.167969 289.96875 194.652344 290.066406 C 193.136719 290.164062 191.621094 290.222656 190.101562 290.25 C 188.582031 290.273438 187.066406 290.261719 185.546875 290.21875 C 184.03125 290.171875 182.515625 290.089844 181 289.972656 C 179.488281 289.855469 177.976562 289.699219 176.46875 289.511719 C 174.964844 289.324219 173.460938 289.097656 171.964844 288.839844 C 170.46875 288.582031 168.980469 288.285156 167.496094 287.957031 C 166.015625 287.628906 164.542969 287.265625 163.078125 286.863281 C 161.609375 286.464844 160.15625 286.035156 158.710938 285.566406 C 157.265625 285.097656 155.832031 284.597656 154.414062 284.0625 C 152.992188 283.527344 151.582031 282.960938 150.1875 282.359375 C 148.792969 281.757812 147.414062 281.125 146.050781 280.460938 C 144.683594 279.792969 143.335938 279.097656 142.003906 278.367188 C 140.671875 277.640625 139.359375 276.878906 138.0625 276.085938 C 136.765625 275.296875 135.492188 274.476562 134.234375 273.625 C 132.976562 272.773438 131.738281 271.894531 130.523438 270.984375 C 129.304688 270.074219 128.113281 269.136719 126.941406 268.171875 C 125.769531 267.207031 124.621094 266.214844 123.496094 265.195312 C 122.371094 264.175781 121.269531 263.128906 120.191406 262.058594 C 119.117188 260.984375 118.066406 259.890625 117.042969 258.769531 C 116.015625 257.648438 115.019531 256.503906 114.050781 255.335938 C 113.078125 254.167969 112.136719 252.980469 111.222656 251.765625 C 110.308594 250.554688 109.421875 249.320312 108.566406 248.066406 C 107.707031 246.8125 106.882812 245.539062 106.085938 244.25 C 105.289062 242.957031 104.523438 241.644531 103.785156 240.316406 C 103.050781 238.988281 102.347656 237.640625 101.675781 236.28125 C 101.003906 234.917969 100.367188 233.542969 99.757812 232.148438 C 99.152344 230.757812 98.578125 229.351562 98.039062 227.933594 C 97.496094 226.515625 96.988281 225.085938 96.515625 223.640625 C 96.042969 222.199219 95.601562 220.746094 95.199219 219.28125 C 94.792969 217.820312 94.421875 216.347656 94.085938 214.867188 C 93.75 213.386719 93.449219 211.898438 93.183594 210.402344 C 92.917969 208.90625 92.6875 207.40625 92.492188 205.902344 C 92.296875 204.394531 92.136719 202.886719 92.015625 201.371094 C 91.890625 199.859375 91.800781 198.34375 91.75 196.824219 C 91.695312 195.308594 91.679688 193.789062 91.695312 192.273438 C 91.714844 190.753906 91.769531 189.238281 91.859375 187.71875 C 91.949219 186.203125 92.074219 184.691406 92.238281 183.183594 C 92.398438 181.671875 92.59375 180.167969 92.824219 178.667969 C 93.058594 177.164062 93.324219 175.671875 93.628906 174.183594 C 93.929688 172.695312 94.265625 171.214844 94.640625 169.742188 C 95.011719 168.269531 95.417969 166.808594 95.859375 165.355469 C 96.296875 163.902344 96.773438 162.460938 97.28125 161.03125 C 97.789062 159.597656 98.332031 158.179688 98.90625 156.777344 C 99.484375 155.371094 100.089844 153.980469 100.730469 152.601562 C 101.375 151.226562 102.046875 149.867188 102.75 148.519531 C 103.457031 147.175781 104.191406 145.847656 104.960938 144.539062 C 105.726562 143.226562 106.523438 141.9375 107.351562 140.664062 C 108.179688 139.390625 109.039062 138.136719 109.925781 136.90625 C 110.8125 135.671875 111.726562 134.460938 112.671875 133.273438 C 113.617188 132.082031 114.585938 130.917969 115.585938 129.773438 C 116.585938 128.628906 117.609375 127.511719 118.660156 126.414062 C 119.714844 125.320312 120.789062 124.25 121.890625 123.203125 C 122.992188 122.160156 124.121094 121.140625 125.269531 120.148438 C 126.417969 119.15625 127.59375 118.195312 128.789062 117.257812 C 129.984375 116.320312 131.199219 115.414062 132.4375 114.535156 C 133.675781 113.652344 134.933594 112.804688 136.210938 111.984375 C 137.488281 111.164062 138.785156 110.375 140.101562 109.617188 C 141.414062 108.855469 142.746094 108.128906 144.097656 107.433594 C 145.445312 106.734375 146.8125 106.070312 148.191406 105.4375 C 149.574219 104.808594 150.96875 104.207031 152.375 103.640625 C 153.785156 103.074219 155.207031 102.542969 156.640625 102.042969 C 158.074219 101.542969 159.519531 101.078125 160.972656 100.644531 C 162.429688 100.214844 163.894531 99.816406 165.371094 99.453125 C 166.84375 99.089844 168.328125 98.761719 169.816406 98.46875 C 171.304688 98.175781 172.800781 97.917969 174.304688 97.695312 C 175.804688 97.472656 177.3125 97.285156 178.824219 97.136719 C 179.363281 97.054688 179.902344 97.070312 180.4375 97.183594 C 180.972656 97.296875 181.472656 97.496094 181.9375 97.785156 C 182.402344 98.074219 182.800781 98.4375 183.136719 98.867188 C 183.472656 99.300781 183.722656 99.777344 183.890625 100.296875 C 184.054688 100.820312 184.128906 101.351562 184.105469 101.898438 C 184.082031 102.445312 183.964844 102.96875 183.753906 103.476562 C 183.542969 103.980469 183.25 104.433594 182.878906 104.835938 C 182.507812 105.234375 182.078125 105.5625 181.59375 105.808594 C 180.433594 106.457031 179.292969 107.140625 178.171875 107.855469 C 177.050781 108.570312 175.953125 109.316406 174.875 110.09375 C 173.796875 110.875 172.742188 111.683594 171.710938 112.519531 C 170.679688 113.359375 169.675781 114.226562 168.695312 115.125 C 167.710938 116.023438 166.757812 116.945312 165.832031 117.898438 C 164.902344 118.851562 164.003906 119.828125 163.132812 120.832031 C 162.261719 121.835938 161.421875 122.863281 160.609375 123.917969 C 159.796875 124.96875 159.015625 126.046875 158.265625 127.144531 C 157.515625 128.238281 156.800781 129.359375 156.113281 130.496094 C 155.429688 131.636719 154.777344 132.792969 154.160156 133.972656 C 153.539062 135.148438 152.957031 136.339844 152.40625 137.550781 C 151.855469 138.761719 151.34375 139.988281 150.863281 141.226562 C 150.382812 142.464844 149.941406 143.71875 149.535156 144.984375 C 149.128906 146.25 148.757812 147.527344 148.425781 148.8125 C 148.09375 150.101562 147.796875 151.394531 147.539062 152.699219 C 147.28125 154.003906 147.058594 155.3125 146.875 156.628906 C 146.695312 157.945312 146.550781 159.265625 146.441406 160.59375 C 146.335938 161.917969 146.269531 163.242188 146.238281 164.574219 C 146.207031 165.902344 146.214844 167.230469 146.261719 168.558594 C 146.308594 169.886719 146.394531 171.214844 146.519531 172.535156 C 146.640625 173.859375 146.800781 175.179688 147.003906 176.492188 C 147.203125 177.808594 147.4375 179.113281 147.710938 180.414062 C 147.988281 181.714844 148.300781 183.007812 148.648438 184.289062 C 148.996094 185.570312 149.382812 186.84375 149.804688 188.105469 C 150.230469 189.363281 150.6875 190.609375 151.183594 191.84375 C 151.675781 193.078125 152.207031 194.296875 152.769531 195.5 C 153.335938 196.703125 153.933594 197.890625 154.566406 199.058594 C 155.199219 200.226562 155.867188 201.375 156.566406 202.507812 C 157.265625 203.636719 157.996094 204.746094 158.761719 205.835938 C 159.523438 206.921875 160.320312 207.988281 161.144531 209.03125 C 161.96875 210.070312 162.824219 211.089844 163.707031 212.082031 C 164.589844 213.074219 165.503906 214.042969 166.441406 214.984375 C 167.382812 215.921875 168.347656 216.835938 169.339844 217.71875 C 170.332031 218.605469 171.347656 219.460938 172.390625 220.285156 C 173.429688 221.113281 174.496094 221.90625 175.582031 222.671875 C 176.667969 223.4375 177.777344 224.167969 178.90625 224.871094 C 180.039062 225.570312 181.1875 226.238281 182.355469 226.871094 C 183.523438 227.507812 184.707031 228.105469 185.910156 228.671875 C 187.113281 229.238281 188.332031 229.769531 189.5625 230.265625 C 190.796875 230.761719 192.042969 231.21875 193.304688 231.644531 C 194.5625 232.066406 195.835938 232.457031 197.117188 232.804688 C 198.398438 233.15625 199.691406 233.46875 200.992188 233.746094 C 202.292969 234.019531 203.597656 234.257812 204.914062 234.460938 C 206.226562 234.660156 207.542969 234.824219 208.867188 234.949219 C 210.191406 235.070312 211.515625 235.160156 212.847656 235.207031 C 214.175781 235.253906 215.503906 235.265625 216.832031 235.234375 C 218.160156 235.207031 219.488281 235.140625 220.8125 235.035156 C 222.136719 234.929688 223.457031 234.785156 224.773438 234.605469 C 226.09375 234.421875 227.402344 234.203125 228.707031 233.945312 C 230.011719 233.691406 231.304688 233.394531 232.59375 233.0625 C 233.878906 232.730469 235.15625 232.363281 236.421875 231.957031 C 237.6875 231.550781 238.941406 231.109375 240.183594 230.632812 C 241.421875 230.15625 242.648438 229.640625 243.859375 229.09375 C 245.070312 228.546875 246.265625 227.960938 247.441406 227.34375 C 248.617188 226.726562 249.777344 226.078125 250.917969 225.394531 C 252.054688 224.710938 253.175781 223.992188 254.273438 223.246094 C 255.371094 222.496094 256.449219 221.714844 257.5 220.90625 C 258.554688 220.09375 259.582031 219.253906 260.589844 218.382812 C 261.59375 217.511719 262.570312 216.617188 263.523438 215.6875 C 264.476562 214.761719 265.402344 213.808594 266.300781 212.828125 C 267.199219 211.847656 268.070312 210.84375 268.910156 209.8125 C 269.75 208.785156 270.558594 207.730469 271.335938 206.652344 C 272.117188 205.578125 272.863281 204.476562 273.582031 203.359375 C 274.296875 202.238281 274.980469 201.097656 275.628906 199.9375 C 275.925781 199.503906 276.285156 199.128906 276.707031 198.816406 C 277.132812 198.5 277.59375 198.265625 278.09375 198.105469 C 278.597656 197.949219 279.109375 197.875 279.636719 197.886719 C 280.164062 197.902344 280.671875 198 281.167969 198.1875 C 281.6875 198.292969 282.175781 198.484375 282.632812 198.757812 C 283.085938 199.03125 283.480469 199.375 283.816406 199.789062 C 284.15625 200.199219 284.410156 200.65625 284.589844 201.160156 C 284.769531 201.660156 284.859375 202.175781 284.859375 202.707031 Z M 284.859375 202.707031 " fill-opacity="1" fill-rule="nonzero"/></svg>